<svg width="53" height="53" viewBox="0 0 53 53" fill="none" xmlns="http://www.w3.org/2000/svg">
<g clip-path="url(#clip0_2_9)">
<path d="M45.5314 3.31918C43.9948 3.31918 42.5211 3.92462 41.4345 5.00232C40.348 6.08001 39.7376 7.54167 39.7376 9.06575V18.4077L25.2488 17.6899V7.63019C25.2488 5.72451 24.4856 3.89689 23.127 2.54937C21.7684 1.20185 19.9257 0.444824 18.0044 0.444824C16.0831 0.444824 14.2404 1.20185 12.8818 2.54937C11.5233 3.89689 10.76 5.72451 10.76 7.63019V44.9936C10.76 48.9662 14.0003 52.1779 18.0033 52.1779C22.0064 52.1779 25.2488 48.9641 25.2488 44.9936V33.4962H39.7376V44.9936C39.7376 45.7483 39.8874 46.4956 40.1786 47.1928C40.4698 47.89 40.8965 48.5235 41.4345 49.0571C41.9725 49.5907 42.6112 50.014 43.3142 50.3028C44.0171 50.5916 44.7705 50.7402 45.5314 50.7402C46.2922 50.7402 47.0456 50.5916 47.7486 50.3028C48.4515 50.014 49.0902 49.5907 49.6282 49.0571C50.1662 48.5235 50.5929 47.89 50.8841 47.1928C51.1753 46.4956 51.3251 45.7483 51.3251 44.9936V9.06791C51.3251 7.54382 50.7147 6.08216 49.6282 5.00447C48.5416 3.92678 47.068 3.32134 45.5314 3.32134" fill="white"/>
<path d="M9.30739 7.62988C9.30739 6.47022 9.5421 5.36445 9.9637 4.35352C8.8839 4.98412 7.98835 5.88287 7.3653 6.96121C6.74224 8.03956 6.41317 9.26029 6.41051 10.5032V43.5578C6.41051 46.6445 8.38378 49.2548 11.1438 50.27C9.95494 48.7646 9.30847 46.9077 9.30739 44.9955V7.62988ZM5.61728 7.2268C4.53762 7.85757 3.6422 8.75635 3.01916 9.83466C2.39613 10.913 2.06697 12.1336 2.06409 13.3764V40.6823C2.06409 43.3077 3.49841 45.5796 5.61728 46.832C5.18342 45.7933 4.9604 44.6799 4.96097 43.5556V10.5032C4.96097 9.3435 5.19568 8.23988 5.61728 7.2268Z" fill="white"/>
<path d="M38.286 9.06772C38.286 7.56318 38.7576 6.17073 39.5552 5.01538C38.3562 5.36095 37.3024 6.08238 36.5514 7.07167C35.8004 8.06097 35.3926 9.26492 35.3891 10.5033V16.7542L38.286 16.8987V9.06772ZM38.286 34.9337H35.387V43.5557C35.387 46.1661 37.1516 48.3453 39.553 49.0458C38.726 47.8537 38.2834 46.4406 38.2839 44.9935L38.286 34.9337Z" fill="white"/>
<path d="M31.0414 42.1183C31.0414 44.7286 32.8082 46.9078 35.2139 47.6083C34.3833 46.4176 33.9383 45.004 33.9383 43.556V34.934H31.0414V42.1183ZM33.9404 10.5035C33.9404 9.00113 34.412 7.60652 35.2096 6.45117C34.0103 6.79684 32.9562 7.5186 32.2051 8.50833C31.4541 9.49806 31.0466 10.7025 31.0436 11.9412V16.5389L33.9404 16.6833V10.5035Z" fill="white"/>
</g>
<defs>
<clipPath id="clip0_2_9">
<rect width="52.157" height="51.732" fill="white" transform="translate(0.610718 0.445801)"/>
</clipPath>
</defs>
</svg>
